# xmcd CD database file
#
# Track frame offsets:
#	150
#	3900
#	15075
#	32400
#	49350
#	70125
#	95925
#	113025
#	134325
#	162450
#	179550
#	201975
#	217800
#	234000
#	268200
#
# Disc length: 3883 seconds
#
# Revision: 0
# Processed by: cddbd v1.4PL0 Copyright (c) Steve Scherf et al.
# Submitted via: Feurio! 1.66.4ß - http://www.feurio.com
#
DISCID=ca0f290f
DTITLE=Eric Clapton - Unplugged  (Dolby Digital 5.1)
DYEAR=1900
DGENRE=blues
TTITLE0=Intro
TTITLE1=Signe
TTITLE2=Before You Accuse Me
TTITLE3=Hey Hey
TTITLE4=Tears In Heaven
TTITLE5=Lonely Stranger
TTITLE6=Nobody Knows You When Your Down And Out
TTITLE7=Layla
TTITLE8=Running On Faith
TTITLE9=Walkin' Blues
TTITLE10=Alberta
TTITLE11=San Francisco Bay Blues
TTITLE12=Malted Milk
TTITLE13=Old Love
TTITLE14=Rollin' And Tumblin'
EXTD=hn
EXTT0=
EXTT1=
EXTT2=
EXTT3=
EXTT4=
EXTT5=
EXTT6=
EXTT7=
EXTT8=
EXTT9=
EXTT10=
EXTT11=
EXTT12=
EXTT13=
EXTT14=
PLAYORDER=
